# AST/ASF file generated using VICON BodyLanguage
# -----------------------------------------------
:version 1.10
:name VICON
:units
  mass 1.0
  length 0.45
  angle deg
:documentation
   .ast/.asf automatically generated from VICON data using
   VICON BodyBuilder and BodyLanguage model FoxedUp or BRILLIANT.MOD
:root
   order TX TY TZ RX RY RZ
   axis XYZ
   position 0 0 0  
   orientation 0 0 0 
:bonedata
  begin
     id 1 
     name lhipjoint
     direction 0.606768 -0.715223 0.346827 
     length 2.41543 
     axis 0 0 0  XYZ
  end
  begin
     id 2 
     name lfemur
     direction 0.34202 -0.939693 0  
     length 7.2778  
     axis 0 0 20  XYZ
    dof rx ry rz
    limits (-160.0 20.0)
           (-70.0 70.0)
           (-60.0 70.0)
  end
  begin
     id 3 
     name ltibia
     direction 0.34202 -0.939693 0   
     length 7.61811   
     axis 0 0 20   XYZ
    dof rx
    limits (-10.0 170.0)
  end
  begin
     id 4 
     name lfoot
     direction 0.0823924 -0.226371 0.97055   
     length 2.33618   
     axis -90 7.62852e-016 20   XYZ
    dof rx rz
    limits (-45.0 90.0)
           (-70.0 20.0)
  end
  begin
     id 5 
     name ltoes
     direction 1.53554e-011 -4.21934e-011 1   
     length 1.17015   
     axis -90 7.62852e-016 20   XYZ
    dof rx
    limits (-90.0 20.0)
  end
  begin
     id 6 
     name rhipjoint
     direction -0.6077 -0.714582 0.346516   
     length 2.4176  
     axis 0 0 0  XYZ 
  end
  begin
     id 7 
     name rfemur
     direction -0.34202 -0.939693 0   
     length 7.28127   
     axis 0 0 -20   XYZ
    dof rx ry rz
    limits (-160.0 20.0)
           (-70.0 70.0)
           (-70.0 60.0)
  end
  begin
     id 8 
     name rtibia
     direction -0.34202 -0.939693 0   
     length 7.77648   
     axis 0 0 -20   XYZ
    dof rx
    limits (-10.0 170.0)
 end
 begin
     id 9 
     name rfoot
     direction -0.0809463 -0.222398 0.97159   
     length 2.37533  
     axis -90 -7.62852e-016 -20   XYZ
    dof rx rz
    limits (-45.0 90.0)
           (-20.0 70.0)
  end
  begin
     id 10 
     name rtoes
     direction -1.53568e-011 -4.21714e-011 1   
     length 1.18972   
     axis -90 -7.62852e-016 -20   XYZ
    dof rx
    limits (-90.0 20.0)
  end
  begin
     id 11 
     name lowerback
     direction 0.010968 0.991932 -0.126297   
     length 2.21698   
     axis 0 0 0   XYZ
    dof rx ry rz
    limits (-20.0 45.0)
           (-30.0 30.0)
           (-30.0 30.0)
  end
  begin
     id 12 
     name upperback
     direction 0.0167007 0.997503 -0.0686276   
     length 2.22371   
     axis 0 0 0   XYZ
    dof rx ry rz
    limits (-20.0 45.0)
           (-30.0 30.0)
           (-30.0 30.0)
  end
  begin
     id 13 
     name thorax
     direction 0.0111721 0.999885 -0.0102878   
     length 2.25242   
     axis 0 0 0   XYZ
    dof rx ry rz
    limits (-20.0 45.0)
           (-30.0 30.0)
           (-30.0 30.0)
  end
  begin
     id 14 
     name lowerneck
     direction -0.0120265 0.990428 0.137508   
     length 1.57674   
     axis 0 0 0   XYZ
    dof rx ry rz
    limits (-20.0 45.0)
           (-30.0 30.0)
           (-30.0 30.0)
  end
  begin
     id 15 
     name upperneck
     direction 0.0175669 0.998907 0.0433089   
     length 1.5618   
     axis 0 0 0   XYZ
    dof rx ry rz
    limits (-20.0 45.0)
           (-30.0 30.0)
           (-30.0 30.0)
  end
  begin
     id 16
     name head
     direction 0.00754609 0.99997 0.00185367  
     length 1.60579  
     axis 0 0 0   XYZ
    dof rx ry rz
    limits (-20.0 45.0)
           (-30.0 30.0)
           (-30.0 30.0)
  end
  begin
     id 17 
     name lclavicle
     direction 0.885866 0.429166 -0.176231  
     length 3.44967  
     axis 0 0 0   XYZ
    dof ry rz
    limits (-20.0 10.0)
           (0.0 20.0)
  end
  begin
     id 18 
     name lhumerus
     direction 1 -4.48973e-011 -1.90255e-027   
     length 5.20607   
     axis 180 -30 -90   XYZ
    dof rx ry rz
    limits (-60.0 90.0)
           (-90.0 90.0)
           (-90.0 90.0)
  end
  begin
     id 19
     name lradius
     direction 1 -4.48956e-011 9.87925e-027   
     length 3.39961   
     axis 180 -30 -90   XYZ
    dof rx
    limits (-10.0 170.0)
  end
  begin
     id 20
     name lwrist
     direction 1 -4.48985e-011 1.73247e-026   
     length 1.6998   
     axis -9.60847e-015 90 90   XYZ
    dof ry
    limits (-180.0 0.0)
 end
  begin
     id 21 
     name lhand
     direction 1 -4.48798e-011 3.46119e-026   
     length 0.519693   
     axis -2.21073e-014 90 90   XYZ
    dof rx rz
    limits (-90.0 90.0)
           (-45.0 45.0)
  end
  begin
     id 22 
     name lfingers
     direction 1 -4.48938e-011 6.92797e-026   
     length 0.41899   
     axis -4.42155e-014 90 90   XYZ
    dof rx
    limits (0.0 90.0)
  end
  begin
     id 23
     name lthumb
     direction 0.707107 -6.34952e-011 0.707107   
     length 0.601588   
     axis -90 45 6.0103e-014   XYZ
    dof rx rz
    limits (-45.0 45.0)
           (-45.0 45.0)
  end
  begin
     id 24 
     name rclavicle
     direction -0.866736 0.456792 -0.200276   
     length 3.45032  
     axis 0 0 0   XYZ 
    dof ry rz
    limits (-10.0 20.0)
           (-20.0 0.0)
  end
  begin
     id 25 
     name rhumerus
     direction -1 -4.4897e-011 8.65094e-028  
     length 5.32214   
     axis 180 30 90   XYZ
    dof rx ry rz
    limits (-90.0 60.0)
           (-90.0 90.0)
           (-90.0 90.0)
  end
  begin
     id 26 
     name rradius
     direction -1 -4.48987e-011 1.08427e-026   
     length 3.51208   
     axis 180 30 90   XYZ
    dof rx
    limits (-10.0 170.0)
  end
  begin
     id 27 
     name rwrist
     direction -1 -4.48961e-011 1.73222e-026   
     length 1.75604   
     axis -9.60847e-015 -90 -90   XYZ
    dof ry
    limits (-180.0 0.0)
  end
  begin
     id 28
     name rhand
     direction -1 -4.48895e-011 3.46314e-026   
     length 0.586681   
     axis -2.21073e-014 -90 -90   XYZ
    dof rx rz
    limits (-90.0 90.0)
           (-45.0 45.0)
  end
  begin
     id 29
     name rfingers
     direction -1 -4.48968e-011 6.92916e-026   
     length 0.472997   
     axis -4.42155e-014 -90 -90   XYZ
    dof rx
    limits (0.0 90.0)
  end
  begin
     id 30
     name rthumb
     direction -0.707107 -6.34848e-011 0.707107   
     length 0.679133   
     axis -90 -45 -6.0103e-014   XYZ
    dof rx rz
    limits (-45.0 45.0)
           (-45.0 45.0)
  end
:hierarchy
  begin
    root lhipjoint rhipjoint lowerback
    lhipjoint lfemur
    lfemur ltibia
    ltibia lfoot
    lfoot ltoes
    rhipjoint rfemur
    rfemur rtibia
    rtibia rfoot
    rfoot rtoes
    lowerback upperback
    upperback thorax
    thorax lowerneck lclavicle rclavicle
    lowerneck upperneck
    upperneck head
    lclavicle lhumerus
    lhumerus lradius
    lradius lwrist
    lwrist lhand lthumb
    lhand lfingers
    rclavicle rhumerus
    rhumerus rradius
    rradius rwrist
    rwrist rhand rthumb
    rhand rfingers
  end

#!OML:ASF H:\Dans Jumps\Project 1\Capture day 1\Session 1\subject.ASF
:FULLY-SPECIFIED
:DEGREES
67
root 0.392592 17.6116 -13.9486 7.23023 -2.22971 -1.15912
lowerback 0.741928 -0.295615 -0.266093
upperback 5.41761 -0.454926 1.46606
thorax 5.19409 -0.277912 1.6493
lowerneck -11.6628 0.851053 -1.48275
upperneck 36.1248 1.81773 -0.507726
head 14.324 0.500698 0.330719
rclavicle -1.09332e-015 -1.19271e-015
rhumerus -26.3051 -12.3885 -81.0744
rradius 27.3752
rwrist 26.8137
rhand -18.5698 -24.8984
rfingers 7.12502
rthumb 7.72037 -54.7375
lclavicle -1.09332e-015 -1.19271e-015
lhumerus -23.9223 -6.76358 90.3268
lradius 24.0237
lwrist 13.2439
lhand -26.8617 -3.8775
lfingers 7.12502
lthumb -0.286529 26.1021
rfemur -15.4184 -1.77105 18.9929
rtibia 23.055
rfoot -13.5631 -2.72613
rtoes 8.64279
lfemur -13.1577 7.0699 -19.4136
ltibia 19.401
lfoot -11.2386 5.70718
ltoes 3.44741
68
root 0.392529 17.6114 -13.9508 7.22747 -2.22551 -1.15568
lowerback 0.773046 -0.29774 -0.266532
upperback 5.42242 -0.457719 1.46788
thorax 5.18152 -0.27934 1.65144
lowerneck -11.6659 0.854354 -1.47502
upperneck 36.1102 1.82295 -0.515155
head 14.3181 0.503173 0.327084
rclavicle 3.08116e-015 4.37326e-015
rhumerus -26.2852 -12.3662 -81.0825
rradius 27.3856
rwrist 26.796
rhand -18.5567 -24.9063
rfingers 7.12502
rthumb 7.73307 -54.7449
lclavicle 3.08116e-015 4.37326e-015
lhumerus -23.9152 -6.77842 90.3252
lradius 24.0274
lwrist 13.2579
lhand -26.8567 -3.88024
lfingers 7.12502
lthumb -0.281713 26.0993
rfemur -15.4304 -1.76951 18.9896
rtibia 23.0695
rfoot -13.5617 -2.72712
rtoes 8.66837
lfemur -13.1712 7.06155 -19.4168
ltibia 19.4162
lfoot -11.2347 5.71156
ltoes 3.43798
69
root 0.39253 17.6111 -13.953 7.22232 -2.21432 -1.15312
lowerback 0.815572 -0.301444 -0.268117
upperback 5.42601 -0.462647 1.47291
thorax 5.16127 -0.281924 1.65752
lowerneck -11.6676 0.862575 -1.45432
upperneck 36.0886 1.83749 -0.5383
head 14.309 0.509431 0.316131
rclavicle 1.42131e-014 -8.54774e-015
rhumerus -26.2635 -12.3424 -81.0868
rradius 27.3929
rwrist 26.7737
rhand -18.5407 -24.9231
rfingers 7.12502
rthumb 7.74852 -54.7611
lclavicle 1.42131e-014 -8.54774e-015
lhumerus -23.9119 -6.79937 90.3301
lradius 24.0357
lwrist 13.2765
lhand -26.8505 -3.88185
lfingers 7.12502
lthumb -0.275655 26.0977
rfemur -15.4403 -1.77047 18.9875
rtibia 23.0868
rfoot -13.5627 -2.73279
rtoes 8.69469
lfemur -13.1856 7.04739 -19.4185
ltibia 19.4352
lfoot -11.2298 5.71625
ltoes 3.424
70
root 0.392577 17.6108 -13.9554 7.21687 -2.19903 -1.15065
lowerback 0.866795 -0.30495 -0.270041
upperback 5.42716 -0.467257 1.47883
thorax 5.13351 -0.284339 1.66475
lowerneck -11.6641 0.876616 -1.42086
upperneck 36.0607 1.86059 -0.571425
head 14.2959 0.5199 0.3001
rclavicle -2.38542e-015 1.59028e-014
rhumerus -26.2433 -12.322 -81.0884
rradius 27.3993
rwrist 26.7494
rhand -18.5215 -24.9449
rfingers 7.12502
rthumb 7.76701 -54.7823
lclavicle -2.38542e-015 1.59028e-014
lhumerus -23.9108 -6.82462 90.3378
lradius 24.0452
lwrist 13.293
lhand -26.8475 -3.89267
lfingers 7.12502
lthumb -0.272806 26.0869
rfemur -15.4515 -1.77553 18.986
rtibia 23.1068
rfoot -13.5642 -2.73914
rtoes 8.7168
lfemur -13.2039 7.03059 -19.4204
ltibia 19.4595
lfoot -11.2256 5.72029
ltoes 3.40482
71
root 0.392649 17.6103 -13.9581 7.21136 -2.17764 -1.14852
lowerback 0.926223 -0.309044 -0.271497
upperback 5.42664 -0.472606 1.48525
thorax 5.09933 -0.287072 1.67224
lowerneck -11.6554 0.892741 -1.38211
upperneck 36.025 1.88614 -0.607413
head 14.2782 0.531899 0.28229
rclavicle -1.10325e-014 -1.19271e-014
rhumerus -26.2242 -12.3001 -81.0895
rradius 27.4058
rwrist 26.7214
rhand -18.5074 -24.9645
rfingers 7.12502
rthumb 7.78062 -54.8013
lclavicle -1.10325e-014 -1.19271e-014
lhumerus -23.9108 -6.85369 90.3468
lradius 24.0564
lwrist 13.3088
lhand -26.8464 -3.90623
lfingers 7.12502
lthumb -0.271724 26.0733
rfemur -15.4635 -1.78509 18.9856
rtibia 23.1289
rfoot -13.5668 -2.74808
rtoes 8.73082
lfemur -13.2274 7.00905 -19.4216
ltibia 19.491
lfoot -11.2228 5.72263
ltoes 3.3875
72
root 0.392722 17.6097 -13.961 7.20725 -2.15235 -1.14783
lowerback 0.99071 -0.313862 -0.271989
upperback 5.4255 -0.47894 1.49269
thorax 5.06168 -0.290257 1.68025
lowerneck -11.6519 0.909192 -1.34248
upperneck 35.9899 1.91198 -0.643155
head 14.262 0.544146 0.264524
rclavicle 3.27995e-015 9.54166e-015
rhumerus -26.2015 -12.2778 -81.0909
rradius 27.4111
rwrist 26.6934
rhand -18.4999 -24.9762
rfingers 7.12502
rthumb 7.78786 -54.8128
lclavicle 3.27995e-015 9.54166e-015
lhumerus -23.9091 -6.88075 90.3555
lradius 24.0683
lwrist 13.3188
lhand -26.8444 -3.91969
lfingers 7.12502
lthumb -0.269851 26.0599
rfemur -15.4794 -1.79803 18.9875
rtibia 23.154
rfoot -13.5692 -2.7594
rtoes 8.72238
lfemur -13.2587 6.986 -19.4212
ltibia 19.5311
lfoot -11.2226 5.72248
ltoes 3.37815
73
root 0.392833 17.6089 -13.9642 7.20529 -2.12637 -1.15018
lowerback 1.05404 -0.319157 -0.268856
upperback 5.42564 -0.486018 1.50061
thorax 5.02604 -0.293677 1.68672
lowerneck -11.6505 0.922289 -1.31258
upperneck 35.9553 1.93209 -0.669379
head 14.2463 0.553854 0.251515
rclavicle -1.13307e-014 -6.36111e-015
rhumerus -26.1763 -12.2509 -81.0949
rradius 27.42
rwrist 26.6622
rhand -18.496 -24.9878
rfingers 7.12502
rthumb 7.79158 -54.8242
lclavicle -1.13307e-014 -6.36111e-015
lhumerus -23.904 -6.90701 90.3625
lradius 24.0789
lwrist 13.3259
lhand -26.8435 -3.94234
lfingers 7.12502
lthumb -0.268929 26.0372
rfemur -15.5004 -1.81222 18.9926
rtibia 23.1828
rfoot -13.5723 -2.76925
rtoes 8.71057
lfemur -13.2991 6.96317 -19.418
ltibia 19.5826
lfoot -11.227 5.72184
ltoes 3.37592
74
root 0.392917 17.608 -13.9679 7.20724 -2.10004 -1.1529
lowerback 1.11454 -0.325248 -0.264752
upperback 5.42707 -0.494183 1.50818
thorax 4.9934 -0.297606 1.69223
lowerneck -11.6529 0.93052 -1.29607
upperneck 35.9226 1.94414 -0.68294
head 14.2321 0.559916 0.244848
rclavicle 2.68359e-015 -2.78299e-015
rhumerus -26.1469 -12.2224 -81.1009
rradius 27.4311
rwrist 26.6328
rhand -18.4998 -24.9872
rfingers 7.12502
rthumb 7.78796 -54.8238
lclavicle 2.68359e-015 -2.78299e-015
lhumerus -23.8954 -6.92937 90.3668
lradius 24.0918
lwrist 13.33
lhand -26.8423 -3.95634
lfingers 7.12502
lthumb -0.267749 26.0232
rfemur -15.5308 -1.8253 18.9983
rtibia 23.2175
rfoot -13.5761 -2.78044
rtoes 8.69693
lfemur -13.3531 6.94244 -19.4152
ltibia 19.648
lfoot -11.2347 5.72006
ltoes 3.36723
75
root 0.392984 17.6069 -13.9722 7.21337 -2.07598 -1.16027
lowerback 1.17431 -0.331735 -0.256533
upperback 5.42857 -0.502999 1.51703
thorax 4.96125 -0.301715 1.69677
lowerneck -11.6583 0.934922 -1.28874
upperneck 35.8929 1.95056 -0.689485
head 14.2198 0.563169 0.241835
rclavicle -5.76476e-015 -1.72943e-014
rhumerus -26.1168 -12.1897 -81.1084
rradius 27.4461
rwrist 26.6052
rhand -18.502 -24.9904
rfingers 7.12502
rthumb 7.78579 -54.8271
lclavicle -5.76476e-015 -1.72943e-014
lhumerus -23.8858 -6.9478 90.3694
lradius 24.1055
lwrist 13.3331
lhand -26.8368 -3.96542
lfingers 7.12502
lthumb -0.262434 26.0142
rfemur -15.5721 -1.83334 19.009
rtibia 23.2602
rfoot -13.5819 -2.79219
rtoes 8.69205
lfemur -13.4226 6.92423 -19.408
ltibia 19.7299
lfoot -11.2464 5.72084
ltoes 3.35783
76
root 0.393012 17.6055 -13.9773 7.2255 -2.05556 -1.16867
lowerback 1.23362 -0.33741 -0.24634
upperback 5.42888 -0.510691 1.52478
thorax 4.92806 -0.30514 1.69909
lowerneck -11.6675 0.934397 -1.29016
upperneck 35.8691 1.94896 -0.687007
head 14.2108 0.562889 0.242866
rclavicle -4.96962e-016 4.96962e-015
rhumerus -26.0885 -12.154 -81.1187
rradius 27.4675
rwrist 26.5756
rhand -18.5065 -24.9911
rfingers 7.12502
rthumb 7.78147 -54.8279
lclavicle -4.96962e-016 4.96962e-015
lhumerus -23.8753 -6.96366 90.3686
lradius 24.1216
lwrist 13.334
lhand -26.8314 -3.9659
lfingers 7.12502
lthumb -0.25721 26.0137
rfemur -15.6297 -1.83709 19.0207
rtibia 23.3143
rfoot -13.5885 -2.80376
rtoes 8.6885
lfemur -13.5114 6.91186 -19.4014
ltibia 19.8302
lfoot -11.2626 5.72231
ltoes 3.33808
77
root 0.393093 17.6038 -13.9833 7.24149 -2.03269 -1.1793
lowerback 1.30042 -0.343563 -0.23366
upperback 5.42813 -0.519025 1.53373
thorax 4.8895 -0.308778 1.70129
lowerneck -11.6823 0.932137 -1.29157
upperneck 35.8448 1.9452 -0.685315
head 14.2029 0.56155 0.243288
rclavicle -4.87022e-015 -5.36719e-015
rhumerus -26.0564 -12.1228 -81.1275
rradius 27.488
rwrist 26.5508
rhand -18.5079 -24.9993
rfingers 7.12502
rthumb 7.78015 -54.8362
lclavicle -4.87022e-015 -5.36719e-015
lhumerus -23.8625 -6.98094 90.3681
lradius 24.1395
lwrist 13.3393
lhand -26.8241 -3.95018
lfingers 7.12502
lthumb -0.250209 26.0294
rfemur -15.701 -1.8365 19.0349
rtibia 23.382
rfoot -13.5983 -2.82149
rtoes 8.68581
lfemur -13.6192 6.89947 -19.3934
ltibia 19.9522
lfoot -11.2828 5.72469
ltoes 3.30777
78
root 0.393342 17.6017 -13.9899 7.26057 -2.00748 -1.189
lowerback 1.37503 -0.350019 -0.219852
upperback 5.42737 -0.527693 1.5426
thorax 4.84652 -0.312515 1.70282
lowerneck -11.6988 0.931053 -1.29187
upperneck 35.8151 1.94336 -0.685074
head 14.193 0.561066 0.243218
rclavicle -1.38155e-014 6.75868e-015
rhumerus -26.0223 -12.0947 -81.1355
rradius 27.5139
rwrist 26.5254
rhand -18.5011 -25.0152
rfingers 7.12502
rthumb 7.78674 -54.8518
lclavicle -1.38155e-014 6.75868e-015
lhumerus -23.8458 -6.9966 90.3667
lradius 24.1592
lwrist 13.3454
lhand -26.8195 -3.92485
lfingers 7.12502
lthumb -0.245709 26.0548
rfemur -15.7875 -1.83835 19.0479
rtibia 23.4661
rfoot -13.6109 -2.83932
rtoes 8.6776
lfemur -13.7456 6.88863 -19.3881
ltibia 20.0968
lfoot -11.3102 5.72451
ltoes 3.2748
79
root 0.393748 17.5992 -13.9975 7.2826 -1.97964 -1.1994
lowerback 1.45842 -0.356683 -0.202998
upperback 5.42797 -0.536598 1.55126
thorax 4.79995 -0.316228 1.70249
lowerneck -11.7155 0.930474 -1.29094
upperneck 35.7751 1.94209 -0.685737
head 14.1783 0.561009 0.242627
rclavicle 6.65929e-015 -1.35174e-014
rhumerus -25.9848 -12.069 -81.1438
rradius 27.5458
rwrist 26.4956
rhand -18.4902 -25.0335
rfingers 7.12502
rthumb 7.79718 -54.8698
lclavicle 6.65929e-015 -1.35174e-014
lhumerus -23.8228 -7.0134 90.363
lradius 24.1815
lwrist 13.357
lhand -26.8158 -3.90034
lfingers 7.12502
lthumb -0.242139 26.0793
rfemur -15.8893 -1.8415 19.0614
rtibia 23.5675
rfoot -13.6272 -2.85956
rtoes 8.66247
lfemur -13.8916 6.87947 -19.3837
ltibia 20.2655
lfoot -11.3431 5.72152
ltoes 3.23749
